<mxfile host="app.diagrams.net" modified="2024-04-24T10:08:59.639Z" agent="Mozilla/5.0 (Windows NT 10.0; Win64; x64; rv:125.0) Gecko/20100101 Firefox/125.0" version="24.2.9" etag="WRzyjGN5mE2x6pg_iGN9" type="github">
  <diagram name="Page-1" id="Zj_5y1vgphJrzyNUQwXw">
    <mxGraphModel>
      <root>
        <mxCell id="0" />
        <mxCell id="1" parent="0" />
      </root>
    </mxGraphModel>
  </diagram>
</mxfile>
